<svg  xmlns="http://www.w3.org/2000/svg" xmlns:xlink="http://www.w3.org/1999/xlink" height="128" width="128" viewBox="0 0 33 33"><path fill="#FFFFFF" d="M0,0 h33v33H0z" shape-rendering="crispEdges"></path><path fill="#000000" d="M0 0h7v1H0zM8 0h1v1H8zM12 0h1v1H12zM14 0h1v1H14zM16 0h1v1H16zM18 0h2v1H18zM23 0h1v1H23zM26,0 h7v1H26zM0 1h1v1H0zM6 1h1v1H6zM10 1h1v1H10zM14 1h1v1H14zM16 1h1v1H16zM21 1h1v1H21zM23 1h2v1H23zM26 1h1v1H26zM32,1 h1v1H32zM0 2h1v1H0zM2 2h3v1H2zM6 2h1v1H6zM8 2h2v1H8zM11 2h1v1H11zM13 2h3v1H13zM17 2h3v1H17zM26 2h1v1H26zM28 2h3v1H28zM32,2 h1v1H32zM0 3h1v1H0zM2 3h3v1H2zM6 3h1v1H6zM8 3h1v1H8zM14 3h2v1H14zM17 3h1v1H17zM19 3h1v1H19zM26 3h1v1H26zM28 3h3v1H28zM32,3 h1v1H32zM0 4h1v1H0zM2 4h3v1H2zM6 4h1v1H6zM9 4h4v1H9zM16 4h1v1H16zM18 4h1v1H18zM22 4h1v1H22zM26 4h1v1H26zM28 4h3v1H28zM32,4 h1v1H32zM0 5h1v1H0zM6 5h1v1H6zM8 5h1v1H8zM13 5h3v1H13zM18 5h2v1H18zM24 5h1v1H24zM26 5h1v1H26zM32,5 h1v1H32zM0 6h7v1H0zM8 6h1v1H8zM10 6h1v1H10zM12 6h1v1H12zM14 6h1v1H14zM16 6h1v1H16zM18 6h1v1H18zM20 6h1v1H20zM22 6h1v1H22zM24 6h1v1H24zM26,6 h7v1H26zM8 7h3v1H8zM13 7h1v1H13zM16 7h3v1H16zM21 7h1v1H21zM24 7h1v1H24zM1 8h1v1H1zM3 8h1v1H3zM5 8h7v1H5zM13 8h1v1H13zM15 8h1v1H15zM20 8h2v1H20zM23 8h5v1H23zM29 8h2v1H29zM32,8 h1v1H32zM0 9h3v1H0zM4 9h2v1H4zM7 9h3v1H7zM14 9h1v1H14zM18 9h1v1H18zM20 9h2v1H20zM24 9h4v1H24zM31,9 h2v1H31zM4 10h1v1H4zM6 10h1v1H6zM8 10h1v1H8zM10 10h1v1H10zM16 10h2v1H16zM19 10h4v1H19zM24 10h2v1H24zM27 10h2v1H27zM30 10h1v1H30zM32,10 h1v1H32zM0 11h2v1H0zM3 11h2v1H3zM7 11h2v1H7zM12 11h4v1H12zM17 11h1v1H17zM19 11h3v1H19zM24 11h1v1H24zM26 11h1v1H26zM28 11h2v1H28zM31 11h1v1H31zM2 12h5v1H2zM8 12h1v1H8zM10 12h2v1H10zM13 12h1v1H13zM16 12h1v1H16zM20 12h1v1H20zM24 12h3v1H24zM29 12h1v1H29zM31 12h1v1H31zM0 13h1v1H0zM4 13h2v1H4zM8 13h1v1H8zM12 13h1v1H12zM14 13h4v1H14zM20 13h1v1H20zM22 13h1v1H22zM24 13h1v1H24zM26 13h1v1H26zM28 13h2v1H28zM31,13 h2v1H31zM3 14h1v1H3zM5 14h2v1H5zM8 14h1v1H8zM10 14h1v1H10zM12 14h2v1H12zM15 14h1v1H15zM18 14h1v1H18zM22 14h2v1H22zM25 14h2v1H25zM28 14h1v1H28zM30 14h2v1H30zM0 15h1v1H0zM5 15h1v1H5zM7 15h3v1H7zM12 15h1v1H12zM15 15h5v1H15zM21 15h1v1H21zM23 15h1v1H23zM26 15h1v1H26zM28 15h1v1H28zM31 15h1v1H31zM0 16h1v1H0zM2 16h2v1H2zM5 16h2v1H5zM10 16h1v1H10zM14 16h2v1H14zM18 16h2v1H18zM21 16h3v1H21zM26 16h1v1H26zM28 16h2v1H28zM31 16h1v1H31zM0 17h2v1H0zM3 17h1v1H3zM7 17h8v1H7zM17 17h2v1H17zM23 17h2v1H23zM27 17h1v1H27zM29 17h1v1H29zM31 17h1v1H31zM1 18h1v1H1zM3 18h2v1H3zM6 18h4v1H6zM11 18h2v1H11zM17 18h2v1H17zM20 18h1v1H20zM25 18h1v1H25zM30 18h1v1H30zM32,18 h1v1H32zM2 19h1v1H2zM4 19h1v1H4zM9 19h2v1H9zM13 19h2v1H13zM16 19h3v1H16zM21 19h2v1H21zM24 19h1v1H24zM26 19h2v1H26zM31,19 h2v1H31zM0 20h2v1H0zM3 20h2v1H3zM6 20h1v1H6zM9 20h1v1H9zM12 20h3v1H12zM19 20h3v1H19zM24 20h2v1H24zM5 21h1v1H5zM8 21h2v1H8zM16 21h2v1H16zM19 21h2v1H19zM23 21h4v1H23zM29 21h1v1H29zM31,21 h2v1H31zM0 22h4v1H0zM6 22h5v1H6zM12 22h1v1H12zM16 22h7v1H16zM25 22h2v1H25zM28 22h1v1H28zM30 22h1v1H30zM32,22 h1v1H32zM1 23h1v1H1zM4 23h2v1H4zM7 23h1v1H7zM10 23h3v1H10zM16 23h1v1H16zM21 23h6v1H21zM28 23h2v1H28zM32,23 h1v1H32zM0 24h1v1H0zM2 24h1v1H2zM4 24h4v1H4zM9 24h1v1H9zM13 24h3v1H13zM21 24h1v1H21zM23 24h7v1H23zM31 24h1v1H31zM8 25h1v1H8zM10 25h5v1H10zM19 25h3v1H19zM23 25h2v1H23zM28 25h2v1H28zM31,25 h2v1H31zM0 26h7v1H0zM8 26h2v1H8zM14 26h2v1H14zM20 26h1v1H20zM22 26h1v1H22zM24 26h1v1H24zM26 26h1v1H26zM28 26h4v1H28zM0 27h1v1H0zM6 27h1v1H6zM8 27h1v1H8zM12 27h1v1H12zM14 27h2v1H14zM17 27h1v1H17zM19 27h4v1H19zM24 27h1v1H24zM28 27h1v1H28zM32,27 h1v1H32zM0 28h1v1H0zM2 28h3v1H2zM6 28h1v1H6zM9 28h3v1H9zM13 28h2v1H13zM16 28h1v1H16zM19 28h1v1H19zM22 28h1v1H22zM24 28h6v1H24zM31,28 h2v1H31zM0 29h1v1H0zM2 29h3v1H2zM6 29h1v1H6zM8 29h1v1H8zM10 29h1v1H10zM12 29h1v1H12zM16 29h1v1H16zM21 29h2v1H21zM26 29h1v1H26zM28 29h1v1H28zM31 29h1v1H31zM0 30h1v1H0zM2 30h3v1H2zM6 30h1v1H6zM9 30h1v1H9zM11 30h3v1H11zM16 30h2v1H16zM20 30h1v1H20zM22 30h1v1H22zM28 30h1v1H28zM30 30h1v1H30zM32,30 h1v1H32zM0 31h1v1H0zM6 31h1v1H6zM8 31h1v1H8zM10 31h1v1H10zM14 31h1v1H14zM17 31h1v1H17zM19 31h1v1H19zM21 31h4v1H21zM26 31h1v1H26zM29 31h1v1H29zM0 32h7v1H0zM9 32h2v1H9zM13 32h1v1H13zM15 32h1v1H15zM17 32h1v1H17zM19 32h1v1H19zM21 32h1v1H21zM23 32h4v1H23zM28 32h2v1H28zM31 32h1v1H31z" shape-rendering="crispEdges"></path></svg>